<svg xmlns="http://www.w3.org/2000/svg" viewBox="0 0 100 100" preserveAspectRatio="xMidYMid" width="200" height="200" style="shape-rendering: auto; display: block; background: transparent;" xmlns:xlink="http://www.w3.org/1999/xlink"><g><g transform="rotate(0 50 50)">
  <rect fill="#b95dff" height="16" width="3" ry="3.36" rx="1.5" y="20" x="48.5">
    <animate repeatCount="indefinite" begin="-0.9411764705882353s" dur="1s" keyTimes="0;1" values="1;0" attributeName="opacity"></animate>
  </rect>
</g><g transform="rotate(21.176470588235293 50 50)">
  <rect fill="#b95dff" height="16" width="3" ry="3.36" rx="1.5" y="20" x="48.5">
    <animate repeatCount="indefinite" begin="-0.8823529411764706s" dur="1s" keyTimes="0;1" values="1;0" attributeName="opacity"></animate>
  </rect>
</g><g transform="rotate(42.35294117647059 50 50)">
  <rect fill="#b95dff" height="16" width="3" ry="3.36" rx="1.5" y="20" x="48.5">
    <animate repeatCount="indefinite" begin="-0.8235294117647058s" dur="1s" keyTimes="0;1" values="1;0" attributeName="opacity"></animate>
  </rect>
</g><g transform="rotate(63.529411764705884 50 50)">
  <rect fill="#b95dff" height="16" width="3" ry="3.36" rx="1.5" y="20" x="48.5">
    <animate repeatCount="indefinite" begin="-0.7647058823529411s" dur="1s" keyTimes="0;1" values="1;0" attributeName="opacity"></animate>
  </rect>
</g><g transform="rotate(84.70588235294117 50 50)">
  <rect fill="#b95dff" height="16" width="3" ry="3.36" rx="1.5" y="20" x="48.5">
    <animate repeatCount="indefinite" begin="-0.7058823529411765s" dur="1s" keyTimes="0;1" values="1;0" attributeName="opacity"></animate>
  </rect>
</g><g transform="rotate(105.88235294117646 50 50)">
  <rect fill="#b95dff" height="16" width="3" ry="3.36" rx="1.5" y="20" x="48.5">
    <animate repeatCount="indefinite" begin="-0.6470588235294118s" dur="1s" keyTimes="0;1" values="1;0" attributeName="opacity"></animate>
  </rect>
</g><g transform="rotate(127.05882352941177 50 50)">
  <rect fill="#b95dff" height="16" width="3" ry="3.36" rx="1.5" y="20" x="48.5">
    <animate repeatCount="indefinite" begin="-0.5882352941176471s" dur="1s" keyTimes="0;1" values="1;0" attributeName="opacity"></animate>
  </rect>
</g><g transform="rotate(148.23529411764707 50 50)">
  <rect fill="#b95dff" height="16" width="3" ry="3.36" rx="1.5" y="20" x="48.5">
    <animate repeatCount="indefinite" begin="-0.5294117647058824s" dur="1s" keyTimes="0;1" values="1;0" attributeName="opacity"></animate>
  </rect>
</g><g transform="rotate(169.41176470588235 50 50)">
  <rect fill="#b95dff" height="16" width="3" ry="3.36" rx="1.5" y="20" x="48.5">
    <animate repeatCount="indefinite" begin="-0.47058823529411764s" dur="1s" keyTimes="0;1" values="1;0" attributeName="opacity"></animate>
  </rect>
</g><g transform="rotate(190.58823529411765 50 50)">
  <rect fill="#b95dff" height="16" width="3" ry="3.36" rx="1.5" y="20" x="48.5">
    <animate repeatCount="indefinite" begin="-0.4117647058823529s" dur="1s" keyTimes="0;1" values="1;0" attributeName="opacity"></animate>
  </rect>
</g><g transform="rotate(211.76470588235293 50 50)">
  <rect fill="#b95dff" height="16" width="3" ry="3.36" rx="1.5" y="20" x="48.5">
    <animate repeatCount="indefinite" begin="-0.35294117647058826s" dur="1s" keyTimes="0;1" values="1;0" attributeName="opacity"></animate>
  </rect>
</g><g transform="rotate(232.94117647058823 50 50)">
  <rect fill="#b95dff" height="16" width="3" ry="3.36" rx="1.5" y="20" x="48.5">
    <animate repeatCount="indefinite" begin="-0.29411764705882354s" dur="1s" keyTimes="0;1" values="1;0" attributeName="opacity"></animate>
  </rect>
</g><g transform="rotate(254.11764705882354 50 50)">
  <rect fill="#b95dff" height="16" width="3" ry="3.36" rx="1.5" y="20" x="48.5">
    <animate repeatCount="indefinite" begin="-0.23529411764705882s" dur="1s" keyTimes="0;1" values="1;0" attributeName="opacity"></animate>
  </rect>
</g><g transform="rotate(275.29411764705884 50 50)">
  <rect fill="#b95dff" height="16" width="3" ry="3.36" rx="1.5" y="20" x="48.5">
    <animate repeatCount="indefinite" begin="-0.17647058823529413s" dur="1s" keyTimes="0;1" values="1;0" attributeName="opacity"></animate>
  </rect>
</g><g transform="rotate(296.47058823529414 50 50)">
  <rect fill="#b95dff" height="16" width="3" ry="3.36" rx="1.5" y="20" x="48.5">
    <animate repeatCount="indefinite" begin="-0.11764705882352941s" dur="1s" keyTimes="0;1" values="1;0" attributeName="opacity"></animate>
  </rect>
</g><g transform="rotate(317.6470588235294 50 50)">
  <rect fill="#b95dff" height="16" width="3" ry="3.36" rx="1.5" y="20" x="48.5">
    <animate repeatCount="indefinite" begin="-0.058823529411764705s" dur="1s" keyTimes="0;1" values="1;0" attributeName="opacity"></animate>
  </rect>
</g><g transform="rotate(338.8235294117647 50 50)">
  <rect fill="#b95dff" height="16" width="3" ry="3.36" rx="1.5" y="20" x="48.5">
    <animate repeatCount="indefinite" begin="0s" dur="1s" keyTimes="0;1" values="1;0" attributeName="opacity"></animate>
  </rect>
</g><g></g></g><!-- [ldio] generated by https://loading.io --></svg>